<?xml version="1.0" standalone="no"?>
<!DOCTYPE svg PUBLIC "-//W3C//DTD SVG 20010904//EN"
 "http://www.w3.org/TR/2001/REC-SVG-20010904/DTD/svg10.dtd">
<svg version="1.0" xmlns="http://www.w3.org/2000/svg"
 width="400.000000pt" height="400.000000pt" viewBox="0 0 400.000000 400.000000"
 preserveAspectRatio="xMidYMid meet">
<metadata>
Created by potrace 1.14, written by Peter Selinger 2001-2017
</metadata>
<g transform="translate(0.000000,400.000000) scale(0.100000,-0.100000)"
fill="#000000" stroke="none">
<path d="M2769 3048 c-1 -2 -2 -30 -4 -63 -1 -47 2 -63 16 -75 9 -8 20 -31 23
-50 7 -48 22 -105 31 -119 3 -7 7 -33 7 -59 -1 -26 6 -57 14 -69 26 -41 114
-23 114 23 0 33 -33 220 -42 240 -5 11 -10 44 -11 74 -2 50 -5 56 -36 77 -21
14 -49 23 -72 23 -22 0 -40 -1 -40 -2z"/>
<path d="M808 2834 c-31 -16 -34 -35 -17 -99 6 -22 15 -67 20 -100 6 -33 14
-69 19 -80 4 -11 13 -60 20 -110 6 -49 16 -94 21 -99 5 -6 9 -18 9 -28 0 -14
8 -18 38 -18 41 0 86 25 76 42 -10 15 -35 170 -30 176 3 2 -1 16 -8 31 -8 14
-19 69 -26 121 -8 64 -18 101 -30 115 -10 11 -20 29 -22 40 -4 25 -35 29 -70
9z"/>
<path d="M2666 1371 c-3 -4 -27 -14 -53 -20 -27 -7 -59 -17 -73 -23 -14 -5
-56 -16 -95 -25 -38 -8 -88 -19 -110 -24 -128 -32 -186 -39 -383 -44 -127 -4
-172 -1 -205 10 -59 21 -74 19 -93 -11 -17 -25 -16 -26 12 -55 27 -27 38 -30
119 -36 116 -9 261 -5 350 8 39 5 88 11 110 12 22 1 46 6 54 11 8 5 26 10 40
12 14 1 46 7 71 13 25 5 59 13 75 16 59 12 110 29 127 43 9 7 30 12 46 11 55
-6 96 63 60 99 -14 14 -44 16 -52 3z"/>
</g>
</svg>
